<svg width="171" height="211" viewBox="0 0 171 211" fill="none" xmlns="http://www.w3.org/2000/svg">
<path fill-rule="evenodd" clip-rule="evenodd" d="M33.4263 0.0466596C37.2883 -0.387037 54.3318 2.30991 56.4673 3.69119C58.9502 5.29831 58.8879 6.32906 55.5328 19.2937C53.9737 25.3182 51.8925 35.0698 50.9087 40.9617C49.1978 51.1947 49.213 51.7497 51.23 53.3211C53.1572 54.8223 54.0872 54.875 61.8951 53.9275C70.5091 52.8824 109.743 53.294 116.085 54.4969C118.512 54.9567 119.507 54.6396 120.873 52.9715C122.395 51.1134 122.405 49.7243 120.958 41.1795C120.055 35.8523 117.932 26.5751 116.241 20.5633C112.943 8.84601 112.562 5.15017 114.497 3.64334C116.439 2.13026 137.984 -0.645376 140.298 0.319121C142.779 1.35379 144.527 5.91503 150.32 26.4832C163.679 73.9074 169.819 113.787 170.775 159.326C171.462 192.054 170.718 200.007 166.544 204.573C161.79 209.774 145.933 211.02 84.8326 211C19.552 210.978 7.92752 209.75 3.29741 202.387C-0.496147 196.355 -1.12699 160.659 1.98198 127.953C5.34755 92.5392 14.5321 47.2261 25.4917 11.9656C28.5973 1.97644 29.5947 0.476022 33.4263 0.0466596ZM127 123.863C126.743 105 105.575 87.4963 85.5074 112.129C65.4401 87.5114 44.2711 105 43.9996 123.863C43.9996 151.954 77.571 175.001 85.5074 175.001C93.4443 175 127 151.954 127 123.863Z" fill="#E296D7"/>
</svg>
